<?xml version="1.0" encoding="UTF-8" standalone="no"?>
<!DOCTYPE svg PUBLIC "-//W3C//DTD SVG 1.1//EN"
 "http://www.w3.org/Graphics/SVG/1.1/DTD/svg11.dtd">
<!-- Generated by graphviz version 12.2.1 (0)
 -->
<!-- Title: World Pages: 1 -->
<svg width="194pt" height="473pt"
 viewBox="0.00 0.00 194.00 472.75" xmlns="http://www.w3.org/2000/svg" xmlns:xlink="http://www.w3.org/1999/xlink">
<g id="graph0" class="graph" transform="scale(1 1) rotate(0) translate(4 468.75)">
<title>World</title>
<!-- Node1 -->
<g id="Node000001" class="node">
<title>Node1</title>
<g id="a_Node000001"><a xlink:title="Singleton class of the world.">
<polygon fill="#999999" stroke="none" points="117,-339 0,-339 0,0 117,0 117,-339"/>
<text text-anchor="start" x="44.62" y="-325.5" font-family="Helvetica,sans-Serif" font-size="10.00">World</text>
<text text-anchor="start" x="4" y="-308.75" font-family="Helvetica,sans-Serif" font-size="10.00">+</text>
<text text-anchor="start" x="16.25" y="-308.75" font-family="Helvetica,sans-Serif" font-size="10.00">mouse_is_down</text>
<text text-anchor="start" x="4" y="-292" font-family="Helvetica,sans-Serif" font-size="10.00">+</text>
<text text-anchor="start" x="16.25" y="-292" font-family="Helvetica,sans-Serif" font-size="10.00">selected_pixel_type</text>
<text text-anchor="start" x="6.25" y="-275.25" font-family="Helvetica,sans-Serif" font-size="10.00">&#45;</text>
<text text-anchor="start" x="16.25" y="-275.25" font-family="Helvetica,sans-Serif" font-size="10.00">window</text>
<text text-anchor="start" x="6.25" y="-258.5" font-family="Helvetica,sans-Serif" font-size="10.00">&#45;</text>
<text text-anchor="start" x="16.25" y="-258.5" font-family="Helvetica,sans-Serif" font-size="10.00">renderer</text>
<text text-anchor="start" x="6.25" y="-241.75" font-family="Helvetica,sans-Serif" font-size="10.00">&#45;</text>
<text text-anchor="start" x="16.25" y="-241.75" font-family="Helvetica,sans-Serif" font-size="10.00">text_renderer</text>
<text text-anchor="start" x="6.25" y="-225" font-family="Helvetica,sans-Serif" font-size="10.00">&#45;</text>
<text text-anchor="start" x="16.25" y="-225" font-family="Helvetica,sans-Serif" font-size="10.00">texture</text>
<text text-anchor="start" x="6.25" y="-208.25" font-family="Helvetica,sans-Serif" font-size="10.00">&#45;</text>
<text text-anchor="start" x="16.25" y="-208.25" font-family="Helvetica,sans-Serif" font-size="10.00">font</text>
<text text-anchor="start" x="6.25" y="-191.5" font-family="Helvetica,sans-Serif" font-size="10.00">&#45;</text>
<text text-anchor="start" x="16.25" y="-191.5" font-family="Helvetica,sans-Serif" font-size="10.00">pixel_map</text>
<text text-anchor="start" x="6.25" y="-174.75" font-family="Helvetica,sans-Serif" font-size="10.00">&#45;</text>
<text text-anchor="start" x="16.25" y="-174.75" font-family="Helvetica,sans-Serif" font-size="10.00">bg_color</text>
<text text-anchor="start" x="4" y="-158" font-family="Helvetica,sans-Serif" font-size="10.00">+</text>
<text text-anchor="start" x="16.25" y="-158" font-family="Helvetica,sans-Serif" font-size="10.00">~World()</text>
<text text-anchor="start" x="4" y="-141.25" font-family="Helvetica,sans-Serif" font-size="10.00">+</text>
<text text-anchor="start" x="16.25" y="-141.25" font-family="Helvetica,sans-Serif" font-size="10.00">World()</text>
<text text-anchor="start" x="4" y="-124.5" font-family="Helvetica,sans-Serif" font-size="10.00">+</text>
<text text-anchor="start" x="16.25" y="-124.5" font-family="Helvetica,sans-Serif" font-size="10.00">clearWorld()</text>
<text text-anchor="start" x="4" y="-107.75" font-family="Helvetica,sans-Serif" font-size="10.00">+</text>
<text text-anchor="start" x="16.25" y="-107.75" font-family="Helvetica,sans-Serif" font-size="10.00">initWorld()</text>
<text text-anchor="start" x="4" y="-91" font-family="Helvetica,sans-Serif" font-size="10.00">+</text>
<text text-anchor="start" x="16.25" y="-91" font-family="Helvetica,sans-Serif" font-size="10.00">redrawWorld()</text>
<text text-anchor="start" x="4" y="-74.25" font-family="Helvetica,sans-Serif" font-size="10.00">+</text>
<text text-anchor="start" x="16.25" y="-74.25" font-family="Helvetica,sans-Serif" font-size="10.00">getIstance()</text>
<text text-anchor="start" x="6.25" y="-57.5" font-family="Helvetica,sans-Serif" font-size="10.00">&#45;</text>
<text text-anchor="start" x="16.25" y="-57.5" font-family="Helvetica,sans-Serif" font-size="10.00">World()</text>
<text text-anchor="start" x="6.25" y="-40.75" font-family="Helvetica,sans-Serif" font-size="10.00">&#45;</text>
<text text-anchor="start" x="16.25" y="-40.75" font-family="Helvetica,sans-Serif" font-size="10.00">checkIfCanMove()</text>
<text text-anchor="start" x="6.25" y="-24" font-family="Helvetica,sans-Serif" font-size="10.00">&#45;</text>
<text text-anchor="start" x="16.25" y="-24" font-family="Helvetica,sans-Serif" font-size="10.00">recalcWorld()</text>
<text text-anchor="start" x="6.25" y="-7.25" font-family="Helvetica,sans-Serif" font-size="10.00">&#45;</text>
<text text-anchor="start" x="16.25" y="-7.25" font-family="Helvetica,sans-Serif" font-size="10.00">addPixel()</text>
<polygon fill="#666666" stroke="#666666" points="0,-320.25 0,-320.25 117,-320.25 117,-320.25 0,-320.25"/>
<polygon fill="#666666" stroke="#666666" points="0,-169.5 0,-169.5 14.25,-169.5 14.25,-169.5 0,-169.5"/>
<polygon fill="#666666" stroke="#666666" points="14.25,-169.5 14.25,-169.5 117,-169.5 117,-169.5 14.25,-169.5"/>
<polygon fill="none" stroke="#666666" points="0,0 0,-339 117,-339 117,0 0,0"/>
</a>
</g>
</g>
<!-- Node1&#45;&gt;Node1 -->
<g id="edge1_Node000001_Node000001" class="edge">
<title>Node1&#45;&gt;Node1</title>
<g id="a_edge1_Node000001_Node000001"><a xlink:title=" ">
<path fill="none" stroke="#63b8ff" d="M116.87,-204.39C127.53,-199.97 135,-188.34 135,-169.5 135,-157.43 131.93,-148.32 126.93,-142.17"/>
<polygon fill="none" stroke="#63b8ff" points="127.18,-142.36 119.99,-141.96 117.59,-135.16 124.79,-135.56 127.18,-142.36"/>
</a>
</g>
<text text-anchor="start" x="138" y="-166.38" font-family="Helvetica,sans-Serif" font-size="10.00" fill="grey">&#45;instance</text>
</g>
<!-- Node2 -->
<g id="Node000002" class="node">
<title>Node2</title>
<g id="a_Node000002"><a xlink:href="structVector2.html" target="_top" xlink:title="Struct what represends objects position in 2D space.">
<polygon fill="white" stroke="none" points="99,-464.75 18,-464.75 18,-393.75 99,-393.75 99,-464.75"/>
<text text-anchor="start" x="40.12" y="-451.25" font-family="Helvetica,sans-Serif" font-size="10.00">Vector2</text>
<text text-anchor="start" x="22" y="-434.5" font-family="Helvetica,sans-Serif" font-size="10.00">+</text>
<text text-anchor="start" x="34.25" y="-434.5" font-family="Helvetica,sans-Serif" font-size="10.00">x</text>
<text text-anchor="start" x="22" y="-417.75" font-family="Helvetica,sans-Serif" font-size="10.00">+</text>
<text text-anchor="start" x="34.25" y="-417.75" font-family="Helvetica,sans-Serif" font-size="10.00">y</text>
<text text-anchor="start" x="22" y="-401" font-family="Helvetica,sans-Serif" font-size="10.00">+</text>
<text text-anchor="start" x="34.25" y="-401" font-family="Helvetica,sans-Serif" font-size="10.00">operator!=()</text>
<polygon fill="#666666" stroke="#666666" points="18,-446 18,-446 99,-446 99,-446 18,-446"/>
<polygon fill="#666666" stroke="#666666" points="18,-412.5 18,-412.5 32.25,-412.5 32.25,-412.5 18,-412.5"/>
<polygon fill="#666666" stroke="#666666" points="32.25,-412.5 32.25,-412.5 99,-412.5 99,-412.5 32.25,-412.5"/>
<polygon fill="none" stroke="#666666" points="18,-393.75 18,-464.75 99,-464.75 99,-393.75 18,-393.75"/>
</a>
</g>
</g>
<!-- Node2&#45;&gt;Node1 -->
<g id="edge2_Node000001_Node000002" class="edge">
<title>Node2&#45;&gt;Node1</title>
<g id="a_edge2_Node000001_Node000002"><a xlink:title=" ">
<path fill="none" stroke="#63b8ff" d="M58.5,-393.76C58.5,-381.74 58.5,-367.3 58.5,-351.62"/>
<polygon fill="none" stroke="#63b8ff" points="58.5,-351.71 54.5,-345.71 58.5,-339.71 62.5,-345.71 58.5,-351.71"/>
</a>
</g>
<text text-anchor="start" x="61.5" y="-363.25" font-family="Helvetica,sans-Serif" font-size="10.00" fill="grey">&#45;window_size</text>
</g>
</g>
</svg>
