<?xml version="1.0" encoding="UTF-8" standalone="no"?>
<!DOCTYPE svg PUBLIC "-//W3C//DTD SVG 1.1//EN"
 "http://www.w3.org/Graphics/SVG/1.1/DTD/svg11.dtd">
<!-- Generated by graphviz version 12.2.1 (0)
 -->
<!-- Title: main/main.cpp Pages: 1 -->
<svg width="654pt" height="142pt"
 viewBox="0.00 0.00 654.12 142.25" xmlns="http://www.w3.org/2000/svg" xmlns:xlink="http://www.w3.org/1999/xlink">
<g id="graph0" class="graph" transform="scale(1 1) rotate(0) translate(4 138.25)">
<title>main/main.cpp</title>
<!-- Node1 -->
<g id="Node000001" class="node">
<title>Node1</title>
<g id="a_Node000001"><a xlink:title="Main file of the game, glues everything together.">
<polygon fill="#999999" stroke="#666666" points="330.25,-134.25 241.5,-134.25 241.5,-113.5 330.25,-113.5 330.25,-134.25"/>
<text text-anchor="middle" x="285.88" y="-120.75" font-family="Helvetica,sans-Serif" font-size="10.00">main/main.cpp</text>
</a>
</g>
</g>
<!-- Node2 -->
<g id="Node000002" class="node">
<title>Node2</title>
<g id="a_Node000002"><a xlink:title=" ">
<polygon fill="#e0e0e0" stroke="#999999" points="217.5,-77.5 100.25,-77.5 100.25,-56.75 217.5,-56.75 217.5,-77.5"/>
<text text-anchor="middle" x="158.88" y="-64" font-family="Helvetica,sans-Serif" font-size="10.00">SDL3/SDL_keycode.h</text>
</a>
</g>
</g>
<!-- Node1&#45;&gt;Node2 -->
<g id="edge1_Node000001_Node000002" class="edge">
<title>Node1&#45;&gt;Node2</title>
<g id="a_edge1_Node000001_Node000002"><a xlink:title=" ">
<path fill="none" stroke="#63b8ff" d="M263.17,-113.09C243.3,-104.52 214.2,-91.98 191.78,-82.31"/>
<polygon fill="#63b8ff" stroke="#63b8ff" points="193.34,-79.17 182.77,-78.43 190.57,-85.6 193.34,-79.17"/>
</a>
</g>
</g>
<!-- Node3 -->
<g id="Node000003" class="node">
<title>Node3</title>
<g id="a_Node000003"><a xlink:title=" ">
<polygon fill="#e0e0e0" stroke="#999999" points="336.62,-77.5 235.12,-77.5 235.12,-56.75 336.62,-56.75 336.62,-77.5"/>
<text text-anchor="middle" x="285.88" y="-64" font-family="Helvetica,sans-Serif" font-size="10.00">SDL3/SDL_main.h</text>
</a>
</g>
</g>
<!-- Node1&#45;&gt;Node3 -->
<g id="edge2_Node000001_Node000003" class="edge">
<title>Node1&#45;&gt;Node3</title>
<g id="a_edge2_Node000001_Node000003"><a xlink:title=" ">
<path fill="none" stroke="#63b8ff" d="M285.88,-113.09C285.88,-106.47 285.88,-97.47 285.88,-89.27"/>
<polygon fill="#63b8ff" stroke="#63b8ff" points="289.38,-89.34 285.88,-79.34 282.38,-89.34 289.38,-89.34"/>
</a>
</g>
</g>
<!-- Node4 -->
<g id="Node000004" class="node">
<title>Node4</title>
<g id="a_Node000004"><a xlink:href="classes_8hpp.html" target="_top" xlink:title="Header with definition of all structs, enums and classes includind World.">
<polygon fill="white" stroke="#666666" points="465.5,-77.5 354.25,-77.5 354.25,-56.75 465.5,-56.75 465.5,-77.5"/>
<text text-anchor="middle" x="409.88" y="-64" font-family="Helvetica,sans-Serif" font-size="10.00">include/classes.hpp</text>
</a>
</g>
</g>
<!-- Node1&#45;&gt;Node4 -->
<g id="edge3_Node000001_Node000004" class="edge">
<title>Node1&#45;&gt;Node4</title>
<g id="a_edge3_Node000001_Node000004"><a xlink:title=" ">
<path fill="none" stroke="#63b8ff" d="M308.04,-113.09C327.35,-104.56 355.6,-92.09 377.45,-82.44"/>
<polygon fill="#63b8ff" stroke="#63b8ff" points="378.78,-85.68 386.51,-78.44 375.95,-79.28 378.78,-85.68"/>
</a>
</g>
</g>
<!-- Node5 -->
<g id="Node000005" class="node">
<title>Node5</title>
<g id="a_Node000005"><a xlink:title=" ">
<polygon fill="#e0e0e0" stroke="#999999" points="103.75,-20.75 0,-20.75 0,0 103.75,0 103.75,-20.75"/>
<text text-anchor="middle" x="51.88" y="-7.25" font-family="Helvetica,sans-Serif" font-size="10.00">SDL3/SDL_video.h</text>
</a>
</g>
</g>
<!-- Node4&#45;&gt;Node5 -->
<g id="edge4_Node000004_Node000005" class="edge">
<title>Node4&#45;&gt;Node5</title>
<g id="a_edge4_Node000004_Node000005"><a xlink:title=" ">
<path fill="none" stroke="#63b8ff" d="M353.76,-57.57C296.44,-48.82 204.52,-34.79 115.27,-21.12"/>
<polygon fill="#63b8ff" stroke="#63b8ff" points="116.03,-17.69 105.61,-19.64 114.97,-24.61 116.03,-17.69"/>
</a>
</g>
</g>
<!-- Node6 -->
<g id="Node000006" class="node">
<title>Node6</title>
<g id="a_Node000006"><a xlink:title=" ">
<polygon fill="#e0e0e0" stroke="#999999" points="214.12,-20.75 121.62,-20.75 121.62,0 214.12,0 214.12,-20.75"/>
<text text-anchor="middle" x="167.88" y="-7.25" font-family="Helvetica,sans-Serif" font-size="10.00">SDL3/SDL_init.h</text>
</a>
</g>
</g>
<!-- Node4&#45;&gt;Node6 -->
<g id="edge5_Node000004_Node000006" class="edge">
<title>Node4&#45;&gt;Node6</title>
<g id="a_edge5_Node000004_Node000006"><a xlink:title=" ">
<path fill="none" stroke="#63b8ff" d="M366.33,-56.27C326.02,-47.15 265.93,-33.56 222.43,-23.72"/>
<polygon fill="#63b8ff" stroke="#63b8ff" points="223.48,-20.37 212.95,-21.57 221.93,-27.19 223.48,-20.37"/>
</a>
</g>
</g>
<!-- Node7 -->
<g id="Node000007" class="node">
<title>Node7</title>
<g id="a_Node000007"><a xlink:title=" ">
<polygon fill="#e0e0e0" stroke="#999999" points="339.62,-20.75 232.12,-20.75 232.12,0 339.62,0 339.62,-20.75"/>
<text text-anchor="middle" x="285.88" y="-7.25" font-family="Helvetica,sans-Serif" font-size="10.00">SDL3/SDL_render.h</text>
</a>
</g>
</g>
<!-- Node4&#45;&gt;Node7 -->
<g id="edge6_Node000004_Node000007" class="edge">
<title>Node4&#45;&gt;Node7</title>
<g id="a_edge6_Node000004_Node000007"><a xlink:title=" ">
<path fill="none" stroke="#63b8ff" d="M387.71,-56.34C368.4,-47.81 340.15,-35.34 318.3,-25.69"/>
<polygon fill="#63b8ff" stroke="#63b8ff" points="319.8,-22.53 309.24,-21.69 316.97,-28.93 319.8,-22.53"/>
</a>
</g>
</g>
<!-- Node8 -->
<g id="Node000008" class="node">
<title>Node8</title>
<g id="a_Node000008"><a xlink:title=" ">
<polygon fill="#e0e0e0" stroke="#999999" points="461.75,-20.75 358,-20.75 358,0 461.75,0 461.75,-20.75"/>
<text text-anchor="middle" x="409.88" y="-7.25" font-family="Helvetica,sans-Serif" font-size="10.00">SDL3_ttf/SDL_ttf.h</text>
</a>
</g>
</g>
<!-- Node4&#45;&gt;Node8 -->
<g id="edge7_Node000004_Node000008" class="edge">
<title>Node4&#45;&gt;Node8</title>
<g id="a_edge7_Node000004_Node000008"><a xlink:title=" ">
<path fill="none" stroke="#63b8ff" d="M409.88,-56.34C409.88,-49.72 409.88,-40.72 409.88,-32.52"/>
<polygon fill="#63b8ff" stroke="#63b8ff" points="413.38,-32.59 409.88,-22.59 406.38,-32.59 413.38,-32.59"/>
</a>
</g>
</g>
<!-- Node9 -->
<g id="Node000009" class="node">
<title>Node9</title>
<g id="a_Node000009"><a xlink:title=" ">
<polygon fill="#e0e0e0" stroke="#999999" points="528.38,-20.75 479.38,-20.75 479.38,0 528.38,0 528.38,-20.75"/>
<text text-anchor="middle" x="503.88" y="-7.25" font-family="Helvetica,sans-Serif" font-size="10.00">cstdint</text>
</a>
</g>
</g>
<!-- Node4&#45;&gt;Node9 -->
<g id="edge8_Node000004_Node000009" class="edge">
<title>Node4&#45;&gt;Node9</title>
<g id="a_edge8_Node000004_Node000009"><a xlink:title=" ">
<path fill="none" stroke="#63b8ff" d="M426.68,-56.34C440.85,-48.08 461.37,-36.13 477.69,-26.63"/>
<polygon fill="#63b8ff" stroke="#63b8ff" points="479.03,-29.9 485.91,-21.84 475.5,-23.85 479.03,-29.9"/>
</a>
</g>
</g>
<!-- Node10 -->
<g id="Node000010" class="node">
<title>Node10</title>
<g id="a_Node000010"><a xlink:title=" ">
<polygon fill="#e0e0e0" stroke="#999999" points="583.75,-20.75 546,-20.75 546,0 583.75,0 583.75,-20.75"/>
<text text-anchor="middle" x="564.88" y="-7.25" font-family="Helvetica,sans-Serif" font-size="10.00">map</text>
</a>
</g>
</g>
<!-- Node4&#45;&gt;Node10 -->
<g id="edge9_Node000004_Node000010" class="edge">
<title>Node4&#45;&gt;Node10</title>
<g id="a_edge9_Node000004_Node000010"><a xlink:title=" ">
<path fill="none" stroke="#63b8ff" d="M437.59,-56.34C464.98,-46.66 506.78,-31.9 534.93,-21.95"/>
<polygon fill="#63b8ff" stroke="#63b8ff" points="536.03,-25.28 544.29,-18.65 533.69,-18.68 536.03,-25.28"/>
</a>
</g>
</g>
<!-- Node11 -->
<g id="Node000011" class="node">
<title>Node11</title>
<g id="a_Node000011"><a xlink:title=" ">
<polygon fill="#e0e0e0" stroke="#999999" points="646.12,-20.75 601.62,-20.75 601.62,0 646.12,0 646.12,-20.75"/>
<text text-anchor="middle" x="623.88" y="-7.25" font-family="Helvetica,sans-Serif" font-size="10.00">utility</text>
</a>
</g>
</g>
<!-- Node4&#45;&gt;Node11 -->
<g id="edge10_Node000004_Node000011" class="edge">
<title>Node4&#45;&gt;Node11</title>
<g id="a_edge10_Node000004_Node000011"><a xlink:title=" ">
<path fill="none" stroke="#63b8ff" d="M452.19,-56.28C486.99,-48.03 537.82,-35.67 590.35,-21.35"/>
<polygon fill="#63b8ff" stroke="#63b8ff" points="591.05,-24.79 599.77,-18.77 589.2,-18.04 591.05,-24.79"/>
</a>
</g>
</g>
</g>
</svg>
