<?xml version="1.0" encoding="UTF-8" standalone="no"?>
<!DOCTYPE svg PUBLIC "-//W3C//DTD SVG 1.1//EN"
 "http://www.w3.org/Graphics/SVG/1.1/DTD/svg11.dtd">
<!-- Generated by graphviz version 12.2.1 (0)
 -->
<!-- Title: main/classes.cpp Pages: 1 -->
<svg width="798pt" height="142pt"
 viewBox="0.00 0.00 798.00 142.25" xmlns="http://www.w3.org/2000/svg" xmlns:xlink="http://www.w3.org/1999/xlink">
<g id="graph0" class="graph" transform="scale(1 1) rotate(0) translate(4 138.25)">
<title>main/classes.cpp</title>
<!-- Node1 -->
<g id="Node000001" class="node">
<title>Node1</title>
<g id="a_Node000001"><a xlink:title="File with implementation of all World functions.">
<polygon fill="#999999" stroke="#666666" points="620.25,-134.25 520.25,-134.25 520.25,-113.5 620.25,-113.5 620.25,-134.25"/>
<text text-anchor="middle" x="570.25" y="-120.75" font-family="Helvetica,sans-Serif" font-size="10.00">main/classes.cpp</text>
</a>
</g>
</g>
<!-- Node2 -->
<g id="Node000002" class="node">
<title>Node2</title>
<g id="a_Node000002"><a xlink:href="classes_8hpp.html" target="_top" xlink:title="Header with definition of all structs, enums and classes includind World.">
<polygon fill="white" stroke="#666666" points="421.88,-77.5 310.62,-77.5 310.62,-56.75 421.88,-56.75 421.88,-77.5"/>
<text text-anchor="middle" x="366.25" y="-64" font-family="Helvetica,sans-Serif" font-size="10.00">include/classes.hpp</text>
</a>
</g>
</g>
<!-- Node1&#45;&gt;Node2 -->
<g id="edge1_Node000001_Node000002" class="edge">
<title>Node1&#45;&gt;Node2</title>
<g id="a_edge1_Node000001_Node000002"><a xlink:title=" ">
<path fill="none" stroke="#63b8ff" d="M533.78,-113.09C500.23,-104.08 450.29,-90.68 413.66,-80.85"/>
<polygon fill="#63b8ff" stroke="#63b8ff" points="414.78,-77.52 404.21,-78.31 412.96,-84.29 414.78,-77.52"/>
</a>
</g>
</g>
<!-- Node6 -->
<g id="Node000006" class="node">
<title>Node6</title>
<g id="a_Node000006"><a xlink:title=" ">
<polygon fill="#e0e0e0" stroke="#999999" points="584.12,-20.75 480.38,-20.75 480.38,0 584.12,0 584.12,-20.75"/>
<text text-anchor="middle" x="532.25" y="-7.25" font-family="Helvetica,sans-Serif" font-size="10.00">SDL3_ttf/SDL_ttf.h</text>
</a>
</g>
</g>
<!-- Node1&#45;&gt;Node6 -->
<g id="edge11_Node000001_Node000006" class="edge">
<title>Node1&#45;&gt;Node6</title>
<g id="a_edge11_Node000001_Node000006"><a xlink:title=" ">
<path fill="none" stroke="#63b8ff" d="M567.01,-113.37C560.9,-95.44 547.54,-56.25 539.28,-32.01"/>
<polygon fill="#63b8ff" stroke="#63b8ff" points="542.62,-30.94 536.08,-22.61 535.99,-33.2 542.62,-30.94"/>
</a>
</g>
</g>
<!-- Node9 -->
<g id="Node000009" class="node">
<title>Node9</title>
<g id="a_Node000009"><a xlink:title=" ">
<polygon fill="#e0e0e0" stroke="#999999" points="646.5,-20.75 602,-20.75 602,0 646.5,0 646.5,-20.75"/>
<text text-anchor="middle" x="624.25" y="-7.25" font-family="Helvetica,sans-Serif" font-size="10.00">utility</text>
</a>
</g>
</g>
<!-- Node1&#45;&gt;Node9 -->
<g id="edge12_Node000001_Node000009" class="edge">
<title>Node1&#45;&gt;Node9</title>
<g id="a_edge12_Node000001_Node000009"><a xlink:title=" ">
<path fill="none" stroke="#63b8ff" d="M571.88,-113.03C574.34,-99.73 579.76,-75.51 589.25,-56.75 594.1,-47.16 601.1,-37.58 607.56,-29.71"/>
<polygon fill="#63b8ff" stroke="#63b8ff" points="610.13,-32.08 614.01,-22.22 604.83,-27.51 610.13,-32.08"/>
</a>
</g>
</g>
<!-- Node10 -->
<g id="Node000010" class="node">
<title>Node10</title>
<g id="a_Node000010"><a xlink:title=" ">
<polygon fill="#e0e0e0" stroke="#999999" points="670,-77.5 598.5,-77.5 598.5,-56.75 670,-56.75 670,-77.5"/>
<text text-anchor="middle" x="634.25" y="-64" font-family="Helvetica,sans-Serif" font-size="10.00">SDL3/SDL.h</text>
</a>
</g>
</g>
<!-- Node1&#45;&gt;Node10 -->
<g id="edge9_Node000001_Node000010" class="edge">
<title>Node1&#45;&gt;Node10</title>
<g id="a_edge9_Node000001_Node000010"><a xlink:title=" ">
<path fill="none" stroke="#63b8ff" d="M581.69,-113.09C590.7,-105.38 603.48,-94.45 614.18,-85.29"/>
<polygon fill="#63b8ff" stroke="#63b8ff" points="616.43,-87.97 621.76,-78.81 611.88,-82.65 616.43,-87.97"/>
</a>
</g>
</g>
<!-- Node11 -->
<g id="Node000011" class="node">
<title>Node11</title>
<g id="a_Node000011"><a xlink:title=" ">
<polygon fill="#e0e0e0" stroke="#999999" points="790,-77.5 688.5,-77.5 688.5,-56.75 790,-56.75 790,-77.5"/>
<text text-anchor="middle" x="739.25" y="-64" font-family="Helvetica,sans-Serif" font-size="10.00">SDL3/SDL_main.h</text>
</a>
</g>
</g>
<!-- Node1&#45;&gt;Node11 -->
<g id="edge10_Node000001_Node000011" class="edge">
<title>Node1&#45;&gt;Node11</title>
<g id="a_edge10_Node000001_Node000011"><a xlink:title=" ">
<path fill="none" stroke="#63b8ff" d="M600.46,-113.09C627.78,-104.24 668.21,-91.14 698.4,-81.36"/>
<polygon fill="#63b8ff" stroke="#63b8ff" points="699.14,-84.8 707.57,-78.39 696.98,-78.14 699.14,-84.8"/>
</a>
</g>
</g>
<!-- Node3 -->
<g id="Node000003" class="node">
<title>Node3</title>
<g id="a_Node000003"><a xlink:title=" ">
<polygon fill="#e0e0e0" stroke="#999999" points="462.12,-20.75 358.38,-20.75 358.38,0 462.12,0 462.12,-20.75"/>
<text text-anchor="middle" x="410.25" y="-7.25" font-family="Helvetica,sans-Serif" font-size="10.00">SDL3/SDL_video.h</text>
</a>
</g>
</g>
<!-- Node2&#45;&gt;Node3 -->
<g id="edge2_Node000002_Node000003" class="edge">
<title>Node2&#45;&gt;Node3</title>
<g id="a_edge2_Node000002_Node000003"><a xlink:title=" ">
<path fill="none" stroke="#63b8ff" d="M374.12,-56.34C380,-49.02 388.22,-38.79 395.33,-29.94"/>
<polygon fill="#63b8ff" stroke="#63b8ff" points="397.97,-32.25 401.5,-22.26 392.51,-27.86 397.97,-32.25"/>
</a>
</g>
</g>
<!-- Node4 -->
<g id="Node000004" class="node">
<title>Node4</title>
<g id="a_Node000004"><a xlink:title=" ">
<polygon fill="#e0e0e0" stroke="#999999" points="92.5,-20.75 0,-20.75 0,0 92.5,0 92.5,-20.75"/>
<text text-anchor="middle" x="46.25" y="-7.25" font-family="Helvetica,sans-Serif" font-size="10.00">SDL3/SDL_init.h</text>
</a>
</g>
</g>
<!-- Node2&#45;&gt;Node4 -->
<g id="edge3_Node000002_Node000004" class="edge">
<title>Node2&#45;&gt;Node4</title>
<g id="a_edge3_Node000002_Node000004"><a xlink:title=" ">
<path fill="none" stroke="#63b8ff" d="M310.14,-56.53C252.34,-46.64 162.65,-31.29 104.18,-21.29"/>
<polygon fill="#63b8ff" stroke="#63b8ff" points="104.86,-17.85 94.42,-19.62 103.68,-24.75 104.86,-17.85"/>
</a>
</g>
</g>
<!-- Node5 -->
<g id="Node000005" class="node">
<title>Node5</title>
<g id="a_Node000005"><a xlink:title=" ">
<polygon fill="#e0e0e0" stroke="#999999" points="218,-20.75 110.5,-20.75 110.5,0 218,0 218,-20.75"/>
<text text-anchor="middle" x="164.25" y="-7.25" font-family="Helvetica,sans-Serif" font-size="10.00">SDL3/SDL_render.h</text>
</a>
</g>
</g>
<!-- Node2&#45;&gt;Node5 -->
<g id="edge4_Node000002_Node000005" class="edge">
<title>Node2&#45;&gt;Node5</title>
<g id="a_edge4_Node000002_Node000005"><a xlink:title=" ">
<path fill="none" stroke="#63b8ff" d="M330.14,-56.34C296.92,-47.33 247.46,-33.93 211.19,-24.1"/>
<polygon fill="#63b8ff" stroke="#63b8ff" points="212.42,-20.8 201.85,-21.57 210.59,-27.56 212.42,-20.8"/>
</a>
</g>
</g>
<!-- Node2&#45;&gt;Node6 -->
<g id="edge5_Node000002_Node000006" class="edge">
<title>Node2&#45;&gt;Node6</title>
<g id="a_edge5_Node000002_Node000006"><a xlink:title=" ">
<path fill="none" stroke="#63b8ff" d="M395.93,-56.34C422.64,-47.53 462.12,-34.5 491.73,-24.74"/>
<polygon fill="#63b8ff" stroke="#63b8ff" points="492.71,-28.1 501.11,-21.64 490.52,-21.45 492.71,-28.1"/>
</a>
</g>
</g>
<!-- Node7 -->
<g id="Node000007" class="node">
<title>Node7</title>
<g id="a_Node000007"><a xlink:title=" ">
<polygon fill="#e0e0e0" stroke="#999999" points="284.75,-20.75 235.75,-20.75 235.75,0 284.75,0 284.75,-20.75"/>
<text text-anchor="middle" x="260.25" y="-7.25" font-family="Helvetica,sans-Serif" font-size="10.00">cstdint</text>
</a>
</g>
</g>
<!-- Node2&#45;&gt;Node7 -->
<g id="edge6_Node000002_Node000007" class="edge">
<title>Node2&#45;&gt;Node7</title>
<g id="a_edge6_Node000002_Node000007"><a xlink:title=" ">
<path fill="none" stroke="#63b8ff" d="M347.3,-56.34C331.17,-48.01 307.75,-35.91 289.26,-26.36"/>
<polygon fill="#63b8ff" stroke="#63b8ff" points="290.87,-23.25 280.38,-21.77 287.66,-29.47 290.87,-23.25"/>
</a>
</g>
</g>
<!-- Node8 -->
<g id="Node000008" class="node">
<title>Node8</title>
<g id="a_Node000008"><a xlink:title=" ">
<polygon fill="#e0e0e0" stroke="#999999" points="340.12,-20.75 302.38,-20.75 302.38,0 340.12,0 340.12,-20.75"/>
<text text-anchor="middle" x="321.25" y="-7.25" font-family="Helvetica,sans-Serif" font-size="10.00">map</text>
</a>
</g>
</g>
<!-- Node2&#45;&gt;Node8 -->
<g id="edge7_Node000002_Node000008" class="edge">
<title>Node2&#45;&gt;Node8</title>
<g id="a_edge7_Node000002_Node000008"><a xlink:title=" ">
<path fill="none" stroke="#63b8ff" d="M358.2,-56.34C352.19,-49.02 343.78,-38.79 336.51,-29.94"/>
<polygon fill="#63b8ff" stroke="#63b8ff" points="339.24,-27.75 330.19,-22.25 333.83,-32.2 339.24,-27.75"/>
</a>
</g>
</g>
<!-- Node2&#45;&gt;Node9 -->
<g id="edge8_Node000002_Node000009" class="edge">
<title>Node2&#45;&gt;Node9</title>
<g id="a_edge8_Node000002_Node000009"><a xlink:title=" ">
<path fill="none" stroke="#63b8ff" d="M422.09,-56.51C465.72,-48.65 528.08,-36.66 590.76,-21.21"/>
<polygon fill="#63b8ff" stroke="#63b8ff" points="591.31,-24.67 600.16,-18.86 589.61,-17.88 591.31,-24.67"/>
</a>
</g>
</g>
</g>
</svg>
