<?xml version="1.0" encoding="UTF-8" standalone="no"?>
<!DOCTYPE svg PUBLIC "-//W3C//DTD SVG 1.1//EN"
 "http://www.w3.org/Graphics/SVG/1.1/DTD/svg11.dtd">
<!-- Generated by graphviz version 12.2.1 (0)
 -->
<!-- Title: main/include/classes.hpp Pages: 1 -->
<svg width="654pt" height="86pt"
 viewBox="0.00 0.00 654.12 85.50" xmlns="http://www.w3.org/2000/svg" xmlns:xlink="http://www.w3.org/1999/xlink">
<g id="graph0" class="graph" transform="scale(1 1) rotate(0) translate(4 81.5)">
<title>main/include/classes.hpp</title>
<!-- Node1 -->
<g id="Node000001" class="node">
<title>Node1</title>
<g id="a_Node000001"><a xlink:title="Header with definition of all structs, enums and classes includind World.">
<polygon fill="#999999" stroke="#666666" points="479.38,-77.5 340.38,-77.5 340.38,-56.75 479.38,-56.75 479.38,-77.5"/>
<text text-anchor="middle" x="409.88" y="-64" font-family="Helvetica,sans-Serif" font-size="10.00">main/include/classes.hpp</text>
</a>
</g>
</g>
<!-- Node2 -->
<g id="Node000002" class="node">
<title>Node2</title>
<g id="a_Node000002"><a xlink:title=" ">
<polygon fill="#e0e0e0" stroke="#999999" points="103.75,-20.75 0,-20.75 0,0 103.75,0 103.75,-20.75"/>
<text text-anchor="middle" x="51.88" y="-7.25" font-family="Helvetica,sans-Serif" font-size="10.00">SDL3/SDL_video.h</text>
</a>
</g>
</g>
<!-- Node1&#45;&gt;Node2 -->
<g id="edge1_Node000001_Node000002" class="edge">
<title>Node1&#45;&gt;Node2</title>
<g id="a_edge1_Node000001_Node000002"><a xlink:title=" ">
<path fill="none" stroke="#63b8ff" d="M345.27,-56.27C287.64,-47.48 200.61,-34.19 115.32,-21.12"/>
<polygon fill="#63b8ff" stroke="#63b8ff" points="116.03,-17.69 105.61,-19.64 114.97,-24.61 116.03,-17.69"/>
</a>
</g>
</g>
<!-- Node3 -->
<g id="Node000003" class="node">
<title>Node3</title>
<g id="a_Node000003"><a xlink:title=" ">
<polygon fill="#e0e0e0" stroke="#999999" points="214.12,-20.75 121.62,-20.75 121.62,0 214.12,0 214.12,-20.75"/>
<text text-anchor="middle" x="167.88" y="-7.25" font-family="Helvetica,sans-Serif" font-size="10.00">SDL3/SDL_init.h</text>
</a>
</g>
</g>
<!-- Node1&#45;&gt;Node3 -->
<g id="edge2_Node000001_Node000003" class="edge">
<title>Node1&#45;&gt;Node3</title>
<g id="a_edge2_Node000001_Node000003"><a xlink:title=" ">
<path fill="none" stroke="#63b8ff" d="M366.33,-56.27C326.02,-47.15 265.93,-33.56 222.43,-23.72"/>
<polygon fill="#63b8ff" stroke="#63b8ff" points="223.48,-20.37 212.95,-21.57 221.93,-27.19 223.48,-20.37"/>
</a>
</g>
</g>
<!-- Node4 -->
<g id="Node000004" class="node">
<title>Node4</title>
<g id="a_Node000004"><a xlink:title=" ">
<polygon fill="#e0e0e0" stroke="#999999" points="339.62,-20.75 232.12,-20.75 232.12,0 339.62,0 339.62,-20.75"/>
<text text-anchor="middle" x="285.88" y="-7.25" font-family="Helvetica,sans-Serif" font-size="10.00">SDL3/SDL_render.h</text>
</a>
</g>
</g>
<!-- Node1&#45;&gt;Node4 -->
<g id="edge3_Node000001_Node000004" class="edge">
<title>Node1&#45;&gt;Node4</title>
<g id="a_edge3_Node000001_Node000004"><a xlink:title=" ">
<path fill="none" stroke="#63b8ff" d="M387.71,-56.34C368.4,-47.81 340.15,-35.34 318.3,-25.69"/>
<polygon fill="#63b8ff" stroke="#63b8ff" points="319.8,-22.53 309.24,-21.69 316.97,-28.93 319.8,-22.53"/>
</a>
</g>
</g>
<!-- Node5 -->
<g id="Node000005" class="node">
<title>Node5</title>
<g id="a_Node000005"><a xlink:title=" ">
<polygon fill="#e0e0e0" stroke="#999999" points="461.75,-20.75 358,-20.75 358,0 461.75,0 461.75,-20.75"/>
<text text-anchor="middle" x="409.88" y="-7.25" font-family="Helvetica,sans-Serif" font-size="10.00">SDL3_ttf/SDL_ttf.h</text>
</a>
</g>
</g>
<!-- Node1&#45;&gt;Node5 -->
<g id="edge4_Node000001_Node000005" class="edge">
<title>Node1&#45;&gt;Node5</title>
<g id="a_edge4_Node000001_Node000005"><a xlink:title=" ">
<path fill="none" stroke="#63b8ff" d="M409.88,-56.34C409.88,-49.72 409.88,-40.72 409.88,-32.52"/>
<polygon fill="#63b8ff" stroke="#63b8ff" points="413.38,-32.59 409.88,-22.59 406.38,-32.59 413.38,-32.59"/>
</a>
</g>
</g>
<!-- Node6 -->
<g id="Node000006" class="node">
<title>Node6</title>
<g id="a_Node000006"><a xlink:title=" ">
<polygon fill="#e0e0e0" stroke="#999999" points="528.38,-20.75 479.38,-20.75 479.38,0 528.38,0 528.38,-20.75"/>
<text text-anchor="middle" x="503.88" y="-7.25" font-family="Helvetica,sans-Serif" font-size="10.00">cstdint</text>
</a>
</g>
</g>
<!-- Node1&#45;&gt;Node6 -->
<g id="edge5_Node000001_Node000006" class="edge">
<title>Node1&#45;&gt;Node6</title>
<g id="a_edge5_Node000001_Node000006"><a xlink:title=" ">
<path fill="none" stroke="#63b8ff" d="M426.68,-56.34C440.85,-48.08 461.37,-36.13 477.69,-26.63"/>
<polygon fill="#63b8ff" stroke="#63b8ff" points="479.03,-29.9 485.91,-21.84 475.5,-23.85 479.03,-29.9"/>
</a>
</g>
</g>
<!-- Node7 -->
<g id="Node000007" class="node">
<title>Node7</title>
<g id="a_Node000007"><a xlink:title=" ">
<polygon fill="#e0e0e0" stroke="#999999" points="583.75,-20.75 546,-20.75 546,0 583.75,0 583.75,-20.75"/>
<text text-anchor="middle" x="564.88" y="-7.25" font-family="Helvetica,sans-Serif" font-size="10.00">map</text>
</a>
</g>
</g>
<!-- Node1&#45;&gt;Node7 -->
<g id="edge6_Node000001_Node000007" class="edge">
<title>Node1&#45;&gt;Node7</title>
<g id="a_edge6_Node000001_Node000007"><a xlink:title=" ">
<path fill="none" stroke="#63b8ff" d="M437.59,-56.34C464.98,-46.66 506.78,-31.9 534.93,-21.95"/>
<polygon fill="#63b8ff" stroke="#63b8ff" points="536.03,-25.28 544.29,-18.65 533.69,-18.68 536.03,-25.28"/>
</a>
</g>
</g>
<!-- Node8 -->
<g id="Node000008" class="node">
<title>Node8</title>
<g id="a_Node000008"><a xlink:title=" ">
<polygon fill="#e0e0e0" stroke="#999999" points="646.12,-20.75 601.62,-20.75 601.62,0 646.12,0 646.12,-20.75"/>
<text text-anchor="middle" x="623.88" y="-7.25" font-family="Helvetica,sans-Serif" font-size="10.00">utility</text>
</a>
</g>
</g>
<!-- Node1&#45;&gt;Node8 -->
<g id="edge7_Node000001_Node000008" class="edge">
<title>Node1&#45;&gt;Node8</title>
<g id="a_edge7_Node000001_Node000008"><a xlink:title=" ">
<path fill="none" stroke="#63b8ff" d="M452.19,-56.28C486.99,-48.03 537.82,-35.67 590.35,-21.35"/>
<polygon fill="#63b8ff" stroke="#63b8ff" points="591.05,-24.79 599.77,-18.77 589.2,-18.04 591.05,-24.79"/>
</a>
</g>
</g>
</g>
</svg>
