<?plantuml 1.2026.2?><svg xmlns="http://www.w3.org/2000/svg" xmlns:xlink="http://www.w3.org/1999/xlink" contentStyleType="text/css" data-diagram-type="ACTIVITY" height="504px" preserveAspectRatio="none" style="width:294px;height:504px;background:#FFFFFF;" version="1.1" viewBox="0 0 294 504" width="294px" zoomAndPan="magnify"><title>Function flow</title><defs/><g><g class="title" data-source-line="76"><text fill="#000000" font-family="sans-serif" font-size="14" font-weight="bold" lengthAdjust="spacing" textLength="96.25" x="97.375" y="32.25">Function flow</text></g><rect fill="#F1F1F1" height="56" rx="12.5" ry="12.5" style="stroke:#181818;stroke-width:0.5;" width="200" x="47" y="93"/><text fill="#000000" font-family="sans-serif" font-size="12" lengthAdjust="spacing" textLength="174" x="57" y="113.5">Update World::window_size and</text><text fill="#000000" font-family="sans-serif" font-size="12" lengthAdjust="spacing" textLength="180" x="57" y="125.5">World::texture to match actual</text><text fill="#000000" font-family="sans-serif" font-size="12" lengthAdjust="spacing" textLength="66" x="105" y="137.5">window size</text><polygon fill="#F1F1F1" points="94.75,45,199.25,45,211.25,57,199.25,69,94.75,69,82.75,57,94.75,45" style="stroke:#181818;stroke-width:0.5;"/><text fill="#000000" font-family="sans-serif" font-size="11" lengthAdjust="spacing" textLength="16.5" x="151" y="78.625">yes</text><text fill="#000000" font-family="sans-serif" font-size="11" lengthAdjust="spacing" textLength="104.5" x="94.75" y="61.125">window was resized?</text><text fill="#000000" font-family="sans-serif" font-size="11" lengthAdjust="spacing" textLength="11" x="211.25" y="55.625">no</text><polygon fill="#F1F1F1" points="147,169,159,181,147,193,135,181,147,169" style="stroke:#181818;stroke-width:0.5;"/><rect fill="#F1F1F1" height="32" rx="12.5" ry="12.5" style="stroke:#181818;stroke-width:0.5;" width="128" x="83" y="213"/><text fill="#000000" font-family="sans-serif" font-size="12" lengthAdjust="spacing" textLength="108" x="93" y="233.5">Call recalcWorld()</text><rect fill="#F1F1F1" height="32" rx="12.5" ry="12.5" style="stroke:#181818;stroke-width:0.5;" width="110" x="92" y="313"/><text fill="#000000" font-family="sans-serif" font-size="12" lengthAdjust="spacing" textLength="90" x="102" y="333.5">Call addPixel()</text><polygon fill="#F1F1F1" points="111.25,265,182.75,265,194.75,277,182.75,289,111.25,289,99.25,277,111.25,265" style="stroke:#181818;stroke-width:0.5;"/><text fill="#000000" font-family="sans-serif" font-size="11" lengthAdjust="spacing" textLength="22" x="151" y="298.625">true</text><text fill="#000000" font-family="sans-serif" font-size="11" lengthAdjust="spacing" textLength="71.5" x="111.25" y="281.125">mouse_is_down</text><text fill="#000000" font-family="sans-serif" font-size="11" lengthAdjust="spacing" textLength="27.5" x="194.75" y="275.625">false</text><polygon fill="#F1F1F1" points="147,365,159,377,147,389,135,377,147,365" style="stroke:#181818;stroke-width:0.5;"/><rect fill="#F1F1F1" height="32" rx="12.5" ry="12.5" style="stroke:#181818;stroke-width:0.5;" width="272" x="11" y="409"/><text fill="#000000" font-family="sans-serif" font-size="12" lengthAdjust="spacing" textLength="252" x="21" y="429.5">Redraw pixels on World::texture and render</text><rect fill="#F1F1F1" height="32" rx="12.5" ry="12.5" style="stroke:#181818;stroke-width:0.5;" width="86" x="104" y="461"/><text fill="#000000" font-family="sans-serif" font-size="12" lengthAdjust="spacing" textLength="66" x="114" y="481.5">Text render</text><line style="stroke:#181818;stroke-width:1;" x1="147" x2="147" y1="69" y2="93"/><polygon fill="#181818" points="143,83,147,93,151,83,147,87" style="stroke:#181818;stroke-width:1;"/><line style="stroke:#181818;stroke-width:1;" x1="211.25" x2="257" y1="57" y2="57"/><polygon fill="#181818" points="253,111,257,121,261,111,257,115" style="stroke:#181818;stroke-width:1;"/><line style="stroke:#181818;stroke-width:1;" x1="257" x2="257" y1="57" y2="181"/><line style="stroke:#181818;stroke-width:1;" x1="257" x2="159" y1="181" y2="181"/><polygon fill="#181818" points="169,177,159,181,169,185,165,181" style="stroke:#181818;stroke-width:1;"/><line style="stroke:#181818;stroke-width:1;" x1="147" x2="147" y1="149" y2="169"/><polygon fill="#181818" points="143,159,147,169,151,159,147,163" style="stroke:#181818;stroke-width:1;"/><line style="stroke:#181818;stroke-width:1;" x1="147" x2="147" y1="193" y2="213"/><polygon fill="#181818" points="143,203,147,213,151,203,147,207" style="stroke:#181818;stroke-width:1;"/><line style="stroke:#181818;stroke-width:1;" x1="147" x2="147" y1="289" y2="313"/><polygon fill="#181818" points="143,303,147,313,151,303,147,307" style="stroke:#181818;stroke-width:1;"/><line style="stroke:#181818;stroke-width:1;" x1="194.75" x2="212" y1="277" y2="277"/><polygon fill="#181818" points="208,319,212,329,216,319,212,323" style="stroke:#181818;stroke-width:1;"/><line style="stroke:#181818;stroke-width:1;" x1="212" x2="212" y1="277" y2="377"/><line style="stroke:#181818;stroke-width:1;" x1="212" x2="159" y1="377" y2="377"/><polygon fill="#181818" points="169,373,159,377,169,381,165,377" style="stroke:#181818;stroke-width:1;"/><line style="stroke:#181818;stroke-width:1;" x1="147" x2="147" y1="345" y2="365"/><polygon fill="#181818" points="143,355,147,365,151,355,147,359" style="stroke:#181818;stroke-width:1;"/><line style="stroke:#181818;stroke-width:1;" x1="147" x2="147" y1="245" y2="265"/><polygon fill="#181818" points="143,255,147,265,151,255,147,259" style="stroke:#181818;stroke-width:1;"/><line style="stroke:#181818;stroke-width:1;" x1="147" x2="147" y1="389" y2="409"/><polygon fill="#181818" points="143,399,147,409,151,399,147,403" style="stroke:#181818;stroke-width:1;"/><line style="stroke:#181818;stroke-width:1;" x1="147" x2="147" y1="441" y2="461"/><polygon fill="#181818" points="143,451,147,461,151,451,147,455" style="stroke:#181818;stroke-width:1;"/><?plantuml-src NO-nYiCm38PtFuN6v1MSuOP2v-DekJ48Iw46LIwsZDi-VPsalU6q20bz___BeWd3iMgmc1GMISt51OOMbLA3XWKob_Xa-Xh1BgmmFBYC3i2VRuJ6y9koaFSxCA-dW4hklJQ-MyqCbk2A5Yw0mIfAv_Tw-wpOv5WAmw1fTAmK5-SFADBz0qhOz8Pnsj9TKoqynp9tLZ-vB5VUWcqK4dt7EykAxBeBzlOd_SEKiS5jlIdGN_yNkF_GdPKuJywV-l8plG00?></g></svg>