<?plantuml 1.2026.2?><svg xmlns="http://www.w3.org/2000/svg" xmlns:xlink="http://www.w3.org/1999/xlink" contentStyleType="text/css" data-diagram-type="ACTIVITY" height="703px" preserveAspectRatio="none" style="width:1567px;height:703px;background:#FFFFFF;" version="1.1" viewBox="0 0 1567 703" width="1567px" zoomAndPan="magnify"><title>Calculation of pixel's new coordinate</title><defs/><g><g class="title" data-source-line="1"><text fill="#000000" font-family="sans-serif" font-size="14" font-weight="bold" lengthAdjust="spacing" textLength="273.4375" x="645.5313" y="32.25">Calculation of pixel's new coordinate</text></g><path d="M223.125,55 L223.125,91 L419.625,91 L419.625,65 L409.625,55 L223.125,55" fill="#FEFFDD" style="stroke:#181818;stroke-width:0.5;"/><path d="M409.625,55 L409.625,65 L419.625,65 L409.625,55" fill="#FEFFDD" style="stroke:#181818;stroke-width:0.5;"/><text fill="#000000" font-family="sans-serif" font-size="13" lengthAdjust="spacing" textLength="175.5" x="229.125" y="71.375">X and Y are pixel's current</text><text fill="#000000" font-family="sans-serif" font-size="13" lengthAdjust="spacing" textLength="149.5" x="229.125" y="84.375">coordinates in 2D space</text><path d="M459.625,55 L459.625,91 L721.125,91 L721.125,65 L711.125,55 L459.625,55" fill="#FEFFDD" style="stroke:#181818;stroke-width:0.5;"/><path d="M711.125,55 L711.125,65 L721.125,65 L711.125,55" fill="#FEFFDD" style="stroke:#181818;stroke-width:0.5;"/><text fill="#000000" font-family="sans-serif" font-size="13" lengthAdjust="spacing" textLength="240.5" x="465.625" y="71.375">I'M SO SORRY FOR CREATING YOU, MY SON</text><text fill="#000000" font-family="sans-serif" font-size="13" lengthAdjust="spacing" textLength="162.5" x="465.625" y="84.375">GOD FORBID ME FOR MY SINS</text><ellipse cx="439.625" cy="73" fill="#222222" rx="10" ry="10" style="stroke:#222222;stroke-width:1;"/><polygon fill="#F1F1F1" points="412.125,121,467.125,121,479.125,133,467.125,145,412.125,145,400.125,133,412.125,121" style="stroke:#181818;stroke-width:0.5;"/><text fill="#000000" font-family="sans-serif" font-size="11" lengthAdjust="spacing" textLength="55" x="412.125" y="137.125">[X, Y - 1]</text><text fill="#000000" font-family="sans-serif" font-size="11" lengthAdjust="spacing" textLength="44" x="356.125" y="131.625">can move</text><text fill="#000000" font-family="sans-serif" font-size="11" lengthAdjust="spacing" textLength="55" x="479.125" y="131.625">can't move</text><rect fill="#F1F1F1" height="32" rx="12.5" ry="12.5" style="stroke:#181818;stroke-width:0.5;" width="80" x="11" y="155"/><text fill="#000000" font-family="sans-serif" font-size="12" lengthAdjust="spacing" textLength="60" x="21" y="175.5">[X, Y - 1]</text><polygon fill="#F1F1F1" points="823.5,155,873,155,885,167,873,179,823.5,179,811.5,167,823.5,155" style="stroke:#181818;stroke-width:0.5;"/><text fill="#000000" font-family="sans-serif" font-size="11" lengthAdjust="spacing" textLength="49.5" x="823.5" y="171.125">PixelType</text><polygon fill="#F1F1F1" points="181.375,211,340.875,211,352.875,223,340.875,235,181.375,235,169.375,223,181.375,211" style="stroke:#181818;stroke-width:0.5;"/><text fill="#000000" font-family="sans-serif" font-size="11" lengthAdjust="spacing" textLength="159.5" x="181.375" y="221.625">[X - 1, Y - 1] &amp; [X - 1, Y] &amp;</text><text fill="#000000" font-family="sans-serif" font-size="11" lengthAdjust="spacing" textLength="148.5" x="181.375" y="232.625">[X + 1, Y - 1] &amp; [X + 1, Y]</text><text fill="#000000" font-family="sans-serif" font-size="11" lengthAdjust="spacing" textLength="44" x="125.375" y="221.625">can move</text><text fill="#000000" font-family="sans-serif" font-size="11" lengthAdjust="spacing" textLength="55" x="352.875" y="221.625">can't move</text><rect fill="#F1F1F1" height="44" rx="12.5" ry="12.5" style="stroke:#181818;stroke-width:0.5;" width="110" x="101" y="245"/><text fill="#000000" font-family="sans-serif" font-size="12" lengthAdjust="spacing" textLength="90" x="111" y="265.5">rand([X - 1, Y]</text><text fill="#000000" font-family="sans-serif" font-size="12" lengthAdjust="spacing" textLength="84" x="111" y="277.5">or [X + 1, Y])</text><polygon fill="#F1F1F1" points="327.75,245,404.75,245,416.75,257,404.75,269,327.75,269,315.75,257,327.75,245" style="stroke:#181818;stroke-width:0.5;"/><text fill="#000000" font-family="sans-serif" font-size="11" lengthAdjust="spacing" textLength="77" x="327.75" y="255.625">[X - 1, Y - 1]</text><text fill="#000000" font-family="sans-serif" font-size="11" lengthAdjust="spacing" textLength="66" x="327.75" y="266.625">&amp; [X - 1, Y]</text><text fill="#000000" font-family="sans-serif" font-size="11" lengthAdjust="spacing" textLength="44" x="271.75" y="255.625">can move</text><text fill="#000000" font-family="sans-serif" font-size="11" lengthAdjust="spacing" textLength="55" x="416.75" y="255.625">can't move</text><rect fill="#F1F1F1" height="32" rx="12.5" ry="12.5" style="stroke:#181818;stroke-width:0.5;" width="80" x="241" y="279"/><text fill="#000000" font-family="sans-serif" font-size="12" lengthAdjust="spacing" textLength="60" x="251" y="299.5">[X - 1, Y]</text><polygon fill="#F1F1F1" points="413,279,490,279,502,291,490,303,413,303,401,291,413,279" style="stroke:#181818;stroke-width:0.5;"/><text fill="#000000" font-family="sans-serif" font-size="11" lengthAdjust="spacing" textLength="77" x="413" y="289.625">[X + 1, Y - 1]</text><text fill="#000000" font-family="sans-serif" font-size="11" lengthAdjust="spacing" textLength="66" x="413" y="300.625">&amp; [X + 1, Y]</text><text fill="#000000" font-family="sans-serif" font-size="11" lengthAdjust="spacing" textLength="44" x="357" y="289.625">can move</text><text fill="#000000" font-family="sans-serif" font-size="11" lengthAdjust="spacing" textLength="55" x="502" y="289.625">can't move</text><rect fill="#F1F1F1" height="32" rx="12.5" ry="12.5" style="stroke:#181818;stroke-width:0.5;" width="80" x="351" y="313"/><text fill="#000000" font-family="sans-serif" font-size="12" lengthAdjust="spacing" textLength="60" x="361" y="333.5">[X + 1, Y]</text><rect fill="#F1F1F1" height="32" rx="12.5" ry="12.5" style="stroke:#181818;stroke-width:0.5;" width="56" x="484" y="313"/><text fill="#000000" font-family="sans-serif" font-size="12" lengthAdjust="spacing" textLength="36" x="494" y="333.5">[X, Y]</text><polygon fill="#F1F1F1" points="451.5,351,463.5,363,451.5,375,439.5,363,451.5,351" style="stroke:#181818;stroke-width:0.5;"/><polygon fill="#F1F1F1" points="366.25,381,378.25,393,366.25,405,354.25,393,366.25,381" style="stroke:#181818;stroke-width:0.5;"/><polygon fill="#F1F1F1" points="261.125,411,273.125,423,261.125,435,249.125,423,261.125,411" style="stroke:#181818;stroke-width:0.5;"/><polygon fill="#F1F1F1" points="769.2109,211,857.2109,211,869.2109,223,857.2109,235,769.2109,235,757.2109,223,769.2109,211" style="stroke:#181818;stroke-width:0.5;"/><text fill="#000000" font-family="sans-serif" font-size="11" lengthAdjust="spacing" textLength="88" x="769.2109" y="221.625">[X - 1, Y - 1] &amp;</text><text fill="#000000" font-family="sans-serif" font-size="11" lengthAdjust="spacing" textLength="77" x="769.2109" y="232.625">[X + 1, Y - 1]</text><text fill="#000000" font-family="sans-serif" font-size="11" lengthAdjust="spacing" textLength="44" x="713.2109" y="221.625">can move</text><text fill="#000000" font-family="sans-serif" font-size="11" lengthAdjust="spacing" textLength="55" x="869.2109" y="221.625">can't move</text><rect fill="#F1F1F1" height="44" rx="12.5" ry="12.5" style="stroke:#181818;stroke-width:0.5;" width="134" x="607" y="245"/><text fill="#000000" font-family="sans-serif" font-size="12" lengthAdjust="spacing" textLength="114" x="617" y="265.5">rand([X - 1, Y - 1]</text><text fill="#000000" font-family="sans-serif" font-size="12" lengthAdjust="spacing" textLength="108" x="617" y="277.5">or [X + 1, Y - 1])</text><polygon fill="#F1F1F1" points="913.9219,245,990.9219,245,1002.9219,257,990.9219,269,913.9219,269,901.9219,257,913.9219,245" style="stroke:#181818;stroke-width:0.5;"/><text fill="#000000" font-family="sans-serif" font-size="11" lengthAdjust="spacing" textLength="77" x="913.9219" y="261.125">[X - 1, Y - 1]</text><text fill="#000000" font-family="sans-serif" font-size="11" lengthAdjust="spacing" textLength="44" x="857.9219" y="255.625">can move</text><text fill="#000000" font-family="sans-serif" font-size="11" lengthAdjust="spacing" textLength="55" x="1002.9219" y="255.625">can't move</text><rect fill="#F1F1F1" height="32" rx="12.5" ry="12.5" style="stroke:#181818;stroke-width:0.5;" width="104" x="771" y="279"/><text fill="#000000" font-family="sans-serif" font-size="12" lengthAdjust="spacing" textLength="84" x="781" y="299.5">[X - 1, Y - 1]</text><polygon fill="#F1F1F1" points="1043.3438,279,1120.3438,279,1132.3438,291,1120.3438,303,1043.3438,303,1031.3438,291,1043.3438,279" style="stroke:#181818;stroke-width:0.5;"/><text fill="#000000" font-family="sans-serif" font-size="11" lengthAdjust="spacing" textLength="77" x="1043.3438" y="295.125">[X + 1, Y - 1]</text><text fill="#000000" font-family="sans-serif" font-size="11" lengthAdjust="spacing" textLength="44" x="987.3438" y="289.625">can move</text><text fill="#000000" font-family="sans-serif" font-size="11" lengthAdjust="spacing" textLength="55" x="1132.3438" y="289.625">can't move</text><rect fill="#F1F1F1" height="32" rx="12.5" ry="12.5" style="stroke:#181818;stroke-width:0.5;" width="104" x="905" y="313"/><text fill="#000000" font-family="sans-serif" font-size="12" lengthAdjust="spacing" textLength="84" x="915" y="333.5">[X + 1, Y - 1]</text><polygon fill="#F1F1F1" points="1173.6875,313,1239.6875,313,1251.6875,325,1239.6875,337,1173.6875,337,1161.6875,325,1173.6875,313" style="stroke:#181818;stroke-width:0.5;"/><text fill="#000000" font-family="sans-serif" font-size="11" lengthAdjust="spacing" textLength="66" x="1173.6875" y="323.625">[X - 1, Y] &amp;</text><text fill="#000000" font-family="sans-serif" font-size="11" lengthAdjust="spacing" textLength="55" x="1173.6875" y="334.625">[X + 1, Y]</text><text fill="#000000" font-family="sans-serif" font-size="11" lengthAdjust="spacing" textLength="44" x="1117.6875" y="323.625">can move</text><text fill="#000000" font-family="sans-serif" font-size="11" lengthAdjust="spacing" textLength="55" x="1251.6875" y="323.625">can't move</text><rect fill="#F1F1F1" height="44" rx="12.5" ry="12.5" style="stroke:#181818;stroke-width:0.5;" width="110" x="1039" y="347"/><text fill="#000000" font-family="sans-serif" font-size="12" lengthAdjust="spacing" textLength="90" x="1049" y="367.5">rand([X - 1, Y]</text><text fill="#000000" font-family="sans-serif" font-size="12" lengthAdjust="spacing" textLength="84" x="1049" y="379.5">or [X + 1, Y])</text><polygon fill="#F1F1F1" points="1250.625,347,1388.125,347,1400.125,359,1388.125,371,1250.625,371,1238.625,359,1250.625,347" style="stroke:#181818;stroke-width:0.5;"/><text fill="#000000" font-family="sans-serif" font-size="11" lengthAdjust="spacing" textLength="137.5" x="1250.625" y="363.125">[X - 1, Y] then (can move</text><text fill="#000000" font-family="sans-serif" font-size="11" lengthAdjust="spacing" textLength="55" x="1400.125" y="357.625">can't move</text><rect fill="#F1F1F1" height="32" rx="12.5" ry="12.5" style="stroke:#181818;stroke-width:0.5;" width="80" x="1179" y="381"/><text fill="#000000" font-family="sans-serif" font-size="12" lengthAdjust="spacing" textLength="60" x="1189" y="401.5">[X - 1, Y]</text><polygon fill="#F1F1F1" points="1351,381,1488.5,381,1500.5,393,1488.5,405,1351,405,1339,393,1351,381" style="stroke:#181818;stroke-width:0.5;"/><text fill="#000000" font-family="sans-serif" font-size="11" lengthAdjust="spacing" textLength="137.5" x="1351" y="397.125">[X + 1, Y] then (can move</text><text fill="#000000" font-family="sans-serif" font-size="11" lengthAdjust="spacing" textLength="55" x="1500.5" y="391.625">can't move</text><rect fill="#F1F1F1" height="32" rx="12.5" ry="12.5" style="stroke:#181818;stroke-width:0.5;" width="80" x="1289" y="415"/><text fill="#000000" font-family="sans-serif" font-size="12" lengthAdjust="spacing" textLength="60" x="1299" y="435.5">[X + 1, Y]</text><rect fill="#F1F1F1" height="32" rx="12.5" ry="12.5" style="stroke:#181818;stroke-width:0.5;" width="56" x="1482.5" y="415"/><text fill="#000000" font-family="sans-serif" font-size="12" lengthAdjust="spacing" textLength="36" x="1492.5" y="435.5">[X, Y]</text><polygon fill="#F1F1F1" points="1419.75,453,1431.75,465,1419.75,477,1407.75,465,1419.75,453" style="stroke:#181818;stroke-width:0.5;"/><polygon fill="#F1F1F1" points="1319.375,483,1331.375,495,1319.375,507,1307.375,495,1319.375,483" style="stroke:#181818;stroke-width:0.5;"/><polygon fill="#F1F1F1" points="1206.6875,513,1218.6875,525,1206.6875,537,1194.6875,525,1206.6875,513" style="stroke:#181818;stroke-width:0.5;"/><polygon fill="#F1F1F1" points="1081.8438,543,1093.8438,555,1081.8438,567,1069.8438,555,1081.8438,543" style="stroke:#181818;stroke-width:0.5;"/><polygon fill="#F1F1F1" points="952.4219,573,964.4219,585,952.4219,597,940.4219,585,952.4219,573" style="stroke:#181818;stroke-width:0.5;"/><polygon fill="#F1F1F1" points="813.2109,603,825.2109,615,813.2109,627,801.2109,615,813.2109,603" style="stroke:#181818;stroke-width:0.5;"/><polygon fill="#F1F1F1" points="848.25,637,848.25,637,860.25,649,848.25,661,848.25,661,836.25,649,848.25,637" style="stroke:#181818;stroke-width:0.5;"/><polygon fill="#F1F1F1" points="439.625,667,451.625,679,439.625,691,427.625,679,439.625,667" style="stroke:#181818;stroke-width:0.5;"/><line style="stroke:#181818;stroke-width:1;" x1="401" x2="391" y1="291" y2="291"/><line style="stroke:#181818;stroke-width:1;" x1="391" x2="391" y1="291" y2="313"/><polygon fill="#181818" points="387,303,391,313,395,303,391,307" style="stroke:#181818;stroke-width:1;"/><line style="stroke:#181818;stroke-width:1;" x1="502" x2="512" y1="291" y2="291"/><line style="stroke:#181818;stroke-width:1;" x1="512" x2="512" y1="291" y2="313"/><polygon fill="#181818" points="508,303,512,313,516,303,512,307" style="stroke:#181818;stroke-width:1;"/><line style="stroke:#181818;stroke-width:1;" x1="391" x2="391" y1="345" y2="363"/><line style="stroke:#181818;stroke-width:1;" x1="391" x2="439.5" y1="363" y2="363"/><polygon fill="#181818" points="429.5,359,439.5,363,429.5,367,433.5,363" style="stroke:#181818;stroke-width:1;"/><line style="stroke:#181818;stroke-width:1;" x1="512" x2="512" y1="345" y2="363"/><line style="stroke:#181818;stroke-width:1;" x1="512" x2="463.5" y1="363" y2="363"/><polygon fill="#181818" points="473.5,359,463.5,363,473.5,367,469.5,363" style="stroke:#181818;stroke-width:1;"/><line style="stroke:#181818;stroke-width:1;" x1="315.75" x2="281" y1="257" y2="257"/><line style="stroke:#181818;stroke-width:1;" x1="281" x2="281" y1="257" y2="279"/><polygon fill="#181818" points="277,269,281,279,285,269,281,273" style="stroke:#181818;stroke-width:1;"/><line style="stroke:#181818;stroke-width:1;" x1="416.75" x2="451.5" y1="257" y2="257"/><line style="stroke:#181818;stroke-width:1;" x1="451.5" x2="451.5" y1="257" y2="279"/><polygon fill="#181818" points="447.5,269,451.5,279,455.5,269,451.5,273" style="stroke:#181818;stroke-width:1;"/><line style="stroke:#181818;stroke-width:1;" x1="281" x2="281" y1="311" y2="393"/><line style="stroke:#181818;stroke-width:1;" x1="281" x2="354.25" y1="393" y2="393"/><polygon fill="#181818" points="344.25,389,354.25,393,344.25,397,348.25,393" style="stroke:#181818;stroke-width:1;"/><line style="stroke:#181818;stroke-width:1;" x1="451.5" x2="451.5" y1="375" y2="393"/><line style="stroke:#181818;stroke-width:1;" x1="451.5" x2="378.25" y1="393" y2="393"/><polygon fill="#181818" points="388.25,389,378.25,393,388.25,397,384.25,393" style="stroke:#181818;stroke-width:1;"/><line style="stroke:#181818;stroke-width:1;" x1="169.375" x2="156" y1="223" y2="223"/><line style="stroke:#181818;stroke-width:1;" x1="156" x2="156" y1="223" y2="245"/><polygon fill="#181818" points="152,235,156,245,160,235,156,239" style="stroke:#181818;stroke-width:1;"/><line style="stroke:#181818;stroke-width:1;" x1="352.875" x2="366.25" y1="223" y2="223"/><line style="stroke:#181818;stroke-width:1;" x1="366.25" x2="366.25" y1="223" y2="245"/><polygon fill="#181818" points="362.25,235,366.25,245,370.25,235,366.25,239" style="stroke:#181818;stroke-width:1;"/><line style="stroke:#181818;stroke-width:1;" x1="156" x2="156" y1="289" y2="423"/><line style="stroke:#181818;stroke-width:1;" x1="156" x2="249.125" y1="423" y2="423"/><polygon fill="#181818" points="239.125,419,249.125,423,239.125,427,243.125,423" style="stroke:#181818;stroke-width:1;"/><line style="stroke:#181818;stroke-width:1;" x1="366.25" x2="366.25" y1="405" y2="423"/><line style="stroke:#181818;stroke-width:1;" x1="366.25" x2="273.125" y1="423" y2="423"/><polygon fill="#181818" points="283.125,419,273.125,423,283.125,427,279.125,423" style="stroke:#181818;stroke-width:1;"/><line style="stroke:#181818;stroke-width:1;" x1="1339" x2="1329" y1="393" y2="393"/><line style="stroke:#181818;stroke-width:1;" x1="1329" x2="1329" y1="393" y2="415"/><polygon fill="#181818" points="1325,405,1329,415,1333,405,1329,409" style="stroke:#181818;stroke-width:1;"/><line style="stroke:#181818;stroke-width:1;" x1="1500.5" x2="1510.5" y1="393" y2="393"/><line style="stroke:#181818;stroke-width:1;" x1="1510.5" x2="1510.5" y1="393" y2="415"/><polygon fill="#181818" points="1506.5,405,1510.5,415,1514.5,405,1510.5,409" style="stroke:#181818;stroke-width:1;"/><line style="stroke:#181818;stroke-width:1;" x1="1329" x2="1329" y1="447" y2="465"/><line style="stroke:#181818;stroke-width:1;" x1="1329" x2="1407.75" y1="465" y2="465"/><polygon fill="#181818" points="1397.75,461,1407.75,465,1397.75,469,1401.75,465" style="stroke:#181818;stroke-width:1;"/><line style="stroke:#181818;stroke-width:1;" x1="1510.5" x2="1510.5" y1="447" y2="465"/><line style="stroke:#181818;stroke-width:1;" x1="1510.5" x2="1431.75" y1="465" y2="465"/><polygon fill="#181818" points="1441.75,461,1431.75,465,1441.75,469,1437.75,465" style="stroke:#181818;stroke-width:1;"/><line style="stroke:#181818;stroke-width:1;" x1="1238.625" x2="1219" y1="359" y2="359"/><line style="stroke:#181818;stroke-width:1;" x1="1219" x2="1219" y1="359" y2="381"/><polygon fill="#181818" points="1215,371,1219,381,1223,371,1219,375" style="stroke:#181818;stroke-width:1;"/><line style="stroke:#181818;stroke-width:1;" x1="1400.125" x2="1419.75" y1="359" y2="359"/><line style="stroke:#181818;stroke-width:1;" x1="1419.75" x2="1419.75" y1="359" y2="381"/><polygon fill="#181818" points="1415.75,371,1419.75,381,1423.75,371,1419.75,375" style="stroke:#181818;stroke-width:1;"/><line style="stroke:#181818;stroke-width:1;" x1="1219" x2="1219" y1="413" y2="495"/><line style="stroke:#181818;stroke-width:1;" x1="1219" x2="1307.375" y1="495" y2="495"/><polygon fill="#181818" points="1297.375,491,1307.375,495,1297.375,499,1301.375,495" style="stroke:#181818;stroke-width:1;"/><line style="stroke:#181818;stroke-width:1;" x1="1419.75" x2="1419.75" y1="477" y2="495"/><line style="stroke:#181818;stroke-width:1;" x1="1419.75" x2="1331.375" y1="495" y2="495"/><polygon fill="#181818" points="1341.375,491,1331.375,495,1341.375,499,1337.375,495" style="stroke:#181818;stroke-width:1;"/><line style="stroke:#181818;stroke-width:1;" x1="1161.6875" x2="1094" y1="325" y2="325"/><line style="stroke:#181818;stroke-width:1;" x1="1094" x2="1094" y1="325" y2="347"/><polygon fill="#181818" points="1090,337,1094,347,1098,337,1094,341" style="stroke:#181818;stroke-width:1;"/><line style="stroke:#181818;stroke-width:1;" x1="1251.6875" x2="1319.375" y1="325" y2="325"/><line style="stroke:#181818;stroke-width:1;" x1="1319.375" x2="1319.375" y1="325" y2="347"/><polygon fill="#181818" points="1315.375,337,1319.375,347,1323.375,337,1319.375,341" style="stroke:#181818;stroke-width:1;"/><line style="stroke:#181818;stroke-width:1;" x1="1094" x2="1094" y1="391" y2="525"/><line style="stroke:#181818;stroke-width:1;" x1="1094" x2="1194.6875" y1="525" y2="525"/><polygon fill="#181818" points="1184.6875,521,1194.6875,525,1184.6875,529,1188.6875,525" style="stroke:#181818;stroke-width:1;"/><line style="stroke:#181818;stroke-width:1;" x1="1319.375" x2="1319.375" y1="507" y2="525"/><line style="stroke:#181818;stroke-width:1;" x1="1319.375" x2="1218.6875" y1="525" y2="525"/><polygon fill="#181818" points="1228.6875,521,1218.6875,525,1228.6875,529,1224.6875,525" style="stroke:#181818;stroke-width:1;"/><line style="stroke:#181818;stroke-width:1;" x1="1031.3438" x2="957" y1="291" y2="291"/><line style="stroke:#181818;stroke-width:1;" x1="957" x2="957" y1="291" y2="313"/><polygon fill="#181818" points="953,303,957,313,961,303,957,307" style="stroke:#181818;stroke-width:1;"/><line style="stroke:#181818;stroke-width:1;" x1="1132.3438" x2="1206.6875" y1="291" y2="291"/><line style="stroke:#181818;stroke-width:1;" x1="1206.6875" x2="1206.6875" y1="291" y2="313"/><polygon fill="#181818" points="1202.6875,303,1206.6875,313,1210.6875,303,1206.6875,307" style="stroke:#181818;stroke-width:1;"/><line style="stroke:#181818;stroke-width:1;" x1="957" x2="957" y1="345" y2="555"/><line style="stroke:#181818;stroke-width:1;" x1="957" x2="1069.8438" y1="555" y2="555"/><polygon fill="#181818" points="1059.8438,551,1069.8438,555,1059.8438,559,1063.8438,555" style="stroke:#181818;stroke-width:1;"/><line style="stroke:#181818;stroke-width:1;" x1="1206.6875" x2="1206.6875" y1="537" y2="555"/><line style="stroke:#181818;stroke-width:1;" x1="1206.6875" x2="1093.8438" y1="555" y2="555"/><polygon fill="#181818" points="1103.8438,551,1093.8438,555,1103.8438,559,1099.8438,555" style="stroke:#181818;stroke-width:1;"/><line style="stroke:#181818;stroke-width:1;" x1="901.9219" x2="823" y1="257" y2="257"/><line style="stroke:#181818;stroke-width:1;" x1="823" x2="823" y1="257" y2="279"/><polygon fill="#181818" points="819,269,823,279,827,269,823,273" style="stroke:#181818;stroke-width:1;"/><line style="stroke:#181818;stroke-width:1;" x1="1002.9219" x2="1081.8438" y1="257" y2="257"/><line style="stroke:#181818;stroke-width:1;" x1="1081.8438" x2="1081.8438" y1="257" y2="279"/><polygon fill="#181818" points="1077.8438,269,1081.8438,279,1085.8438,269,1081.8438,273" style="stroke:#181818;stroke-width:1;"/><line style="stroke:#181818;stroke-width:1;" x1="823" x2="823" y1="311" y2="585"/><line style="stroke:#181818;stroke-width:1;" x1="823" x2="940.4219" y1="585" y2="585"/><polygon fill="#181818" points="930.4219,581,940.4219,585,930.4219,589,934.4219,585" style="stroke:#181818;stroke-width:1;"/><line style="stroke:#181818;stroke-width:1;" x1="1081.8438" x2="1081.8438" y1="567" y2="585"/><line style="stroke:#181818;stroke-width:1;" x1="1081.8438" x2="964.4219" y1="585" y2="585"/><polygon fill="#181818" points="974.4219,581,964.4219,585,974.4219,589,970.4219,585" style="stroke:#181818;stroke-width:1;"/><line style="stroke:#181818;stroke-width:1;" x1="757.2109" x2="674" y1="223" y2="223"/><line style="stroke:#181818;stroke-width:1;" x1="674" x2="674" y1="223" y2="245"/><polygon fill="#181818" points="670,235,674,245,678,235,674,239" style="stroke:#181818;stroke-width:1;"/><line style="stroke:#181818;stroke-width:1;" x1="869.2109" x2="952.4219" y1="223" y2="223"/><line style="stroke:#181818;stroke-width:1;" x1="952.4219" x2="952.4219" y1="223" y2="245"/><polygon fill="#181818" points="948.4219,235,952.4219,245,956.4219,235,952.4219,239" style="stroke:#181818;stroke-width:1;"/><line style="stroke:#181818;stroke-width:1;" x1="674" x2="674" y1="289" y2="615"/><line style="stroke:#181818;stroke-width:1;" x1="674" x2="801.2109" y1="615" y2="615"/><polygon fill="#181818" points="791.2109,611,801.2109,615,791.2109,619,795.2109,615" style="stroke:#181818;stroke-width:1;"/><line style="stroke:#181818;stroke-width:1;" x1="952.4219" x2="952.4219" y1="597" y2="615"/><line style="stroke:#181818;stroke-width:1;" x1="952.4219" x2="825.2109" y1="615" y2="615"/><polygon fill="#181818" points="835.2109,611,825.2109,615,835.2109,619,831.2109,615" style="stroke:#181818;stroke-width:1;"/><line style="stroke:#181818;stroke-width:1;" x1="811.5" x2="261.125" y1="167" y2="167"/><line style="stroke:#181818;stroke-width:1;" x1="261.125" x2="261.125" y1="167" y2="211"/><polygon fill="#181818" points="257.125,201,261.125,211,265.125,201,261.125,205" style="stroke:#181818;stroke-width:1;"/><text fill="#000000" font-family="sans-serif" font-size="11" lengthAdjust="spacing" textLength="22" x="261.125" y="193.125">SAND</text><line style="stroke:#181818;stroke-width:1;" x1="885" x2="897" y1="167" y2="167"/><line style="stroke:#181818;stroke-width:1;" x1="897" x2="897" y1="167" y2="191"/><line style="stroke:#181818;stroke-width:1;" x1="897" x2="813.2109" y1="191" y2="191"/><line style="stroke:#181818;stroke-width:1;" x1="813.2109" x2="813.2109" y1="191" y2="211"/><polygon fill="#181818" points="809.2109,201,813.2109,211,817.2109,201,813.2109,205" style="stroke:#181818;stroke-width:1;"/><text fill="#000000" font-family="sans-serif" font-size="11" lengthAdjust="spacing" textLength="27.5" x="901" y="171.125">WATER</text><line style="stroke:#181818;stroke-width:1;" x1="261.125" x2="261.125" y1="435" y2="649"/><line style="stroke:#181818;stroke-width:1;" x1="261.125" x2="836.25" y1="649" y2="649"/><polygon fill="#181818" points="826.25,645,836.25,649,826.25,653,830.25,649" style="stroke:#181818;stroke-width:1;"/><line style="stroke:#181818;stroke-width:1;" x1="813.2109" x2="813.2109" y1="627" y2="649"/><line style="stroke:#181818;stroke-width:1;" x1="813.2109" x2="836.25" y1="649" y2="649"/><polygon fill="#181818" points="826.25,645,836.25,649,826.25,653,830.25,649" style="stroke:#181818;stroke-width:1;"/><line style="stroke:#181818;stroke-width:1;" x1="400.125" x2="51" y1="133" y2="133"/><line style="stroke:#181818;stroke-width:1;" x1="51" x2="51" y1="133" y2="155"/><polygon fill="#181818" points="47,145,51,155,55,145,51,149" style="stroke:#181818;stroke-width:1;"/><line style="stroke:#181818;stroke-width:1;" x1="479.125" x2="848.25" y1="133" y2="133"/><line style="stroke:#181818;stroke-width:1;" x1="848.25" x2="848.25" y1="133" y2="155"/><polygon fill="#181818" points="844.25,145,848.25,155,852.25,145,848.25,149" style="stroke:#181818;stroke-width:1;"/><line style="stroke:#181818;stroke-width:1;" x1="51" x2="51" y1="187" y2="679"/><line style="stroke:#181818;stroke-width:1;" x1="51" x2="427.625" y1="679" y2="679"/><polygon fill="#181818" points="417.625,675,427.625,679,417.625,683,421.625,679" style="stroke:#181818;stroke-width:1;"/><line style="stroke:#181818;stroke-width:1;" x1="848.25" x2="848.25" y1="661" y2="679"/><line style="stroke:#181818;stroke-width:1;" x1="848.25" x2="451.625" y1="679" y2="679"/><polygon fill="#181818" points="461.625,675,451.625,679,461.625,683,457.625,679" style="stroke:#181818;stroke-width:1;"/><line style="stroke:#181818;stroke-width:1;" x1="439.625" x2="439.625" y1="83" y2="121"/><polygon fill="#181818" points="435.625,111,439.625,121,443.625,111,439.625,115" style="stroke:#181818;stroke-width:1;"/><?plantuml-src bPJ1Ru8m5CRl_Ik-qzJW3jjHJqwSuI0iwBAHnKE3HPkmra2Tst-_5XGOWO74XBRlUx_t-FgYuYfccDCuFCLKSIaW8npvDui7AGGx8vGosN515IEfeeaYKIorKEmXf6A8MQG8y0ugTWX04rPaXwSaOS94IqOABl1e8ptIa16cSmobnapu_c3IdC4AQq__V3_0i-TZxYzc6yTT8l1UnrW5EkHgtTApJVZ9iR5QP48JSjnrMO1767wyZtM7ztZOZg0EJ60OKe5F-SL66Z8fmrF2ufHbuO4g1EcPg_20uOlvlCtFCJiCgH6kPwvjTa1Unr2kCDoXED0ReZTMFPeVDBPbdacYpIsnMoAJQjQKPBgcdfiQ8jM6MakMaZvuguwtkl5M3_prMhGg4uaTZnfNnLMypJOBl_qkQlRtT3p_iAhhUVQDpdURVHc_cmplzhYRMklsZr6j1NeC9YxIdbLRwrIdiIVJwi6q-Z9hSrYTlxRrVolzplzDVW40?></g></svg>